<?xml version="1.0" standalone="no"?><!DOCTYPE svg PUBLIC "-//W3C//DTD SVG 1.1//EN" "http://www.w3.org/Graphics/SVG/1.1/DTD/svg11.dtd"><svg t="1731056145685" class="icon" viewBox="0 0 1024 1024" version="1.1" xmlns="http://www.w3.org/2000/svg" p-id="1612" xmlns:xlink="http://www.w3.org/1999/xlink" width="200" height="200"><path d="M860.16 0a143.36 143.36 0 0 1 142.7456 129.536L1003.52 143.36v256H921.6V143.36a61.44 61.44 0 0 0-51.5072-60.6208L860.16 81.92h-716.8a61.44 61.44 0 0 0-60.6208 51.5072L81.92 143.36v716.8a61.44 61.44 0 0 0 51.5072 60.6208L143.36 921.6h256v81.92H143.36A143.36 143.36 0 0 1 0.6144 873.984L0 860.16v-716.8A143.36 143.36 0 0 1 129.536 0.6144L143.36 0h716.8z" p-id="1613"></path><path d="M684.7488 655.36L552.96 983.04h60.416l31.232-82.1248h144.384l31.3344 82.1248H880.64L748.8512 655.36h-64.1024zM661.504 856.8832l54.5792-143.6672h1.9456l54.0672 143.6672H661.504zM939.2128 655.36v327.68h67.1744V655.36zM419.84 163.84c80.7936 0 146.3296 61.1328 146.3296 136.4992 0 46.2848-24.6784 87.2448-62.464 111.9232 94.72 21.1968 165.4784 78.4384 171.7248 150.8352L675.84 573.44h-73.1136c0-52.9408-79.4624-102.4-182.8864-102.4-98.7136 0-175.616 45.056-182.3744 95.232l-0.512 7.168H163.84c0-77.312 72.9088-138.9568 172.032-161.4848a133.3248 133.3248 0 0 1-62.3616-111.616c0-75.3664 65.536-136.4992 146.3296-136.4992z m0 68.3008c-40.3456 0-73.1136 30.5152-73.1136 68.1984 0 37.7856 32.768 68.3008 73.1136 68.3008 40.3456 0 73.1136-30.5152 73.1136-68.3008 0-37.6832-32.768-68.1984-73.1136-68.1984z" p-id="1614"></path></svg>