<?xml version="1.0" standalone="no"?><!DOCTYPE svg PUBLIC "-//W3C//DTD SVG 1.1//EN" "http://www.w3.org/Graphics/SVG/1.1/DTD/svg11.dtd"><svg t="1685199307613" class="icon" viewBox="0 0 1024 1024" version="1.1" xmlns="http://www.w3.org/2000/svg" p-id="1475" xmlns:xlink="http://www.w3.org/1999/xlink" width="200" height="200"><path d="M412.507 398.337a99.615 99.615 0 1 0 199.23 0 99.615 99.615 0 1 0-199.23 0z" fill="#1296DB" p-id="1476"></path><path d="M512.122 13.866c-132.455 88.546-265.396 132.82-398.58 132.82v313.439c0 177.7 88.789 343.604 236.569 442.124L512 1010.134 673.89 902.25c147.78-98.52 236.569-264.423 236.569-442.124v-313.44c-132.82 0-265.64-44.273-398.337-132.82z m32.475 544.657v62.761h98.52v66.532h-98.52v106.79h-65.194V558.523c-76.018-15.203-133.427-82.343-133.427-162.862 0-91.709 74.315-166.024 166.024-166.024s166.024 74.315 166.024 166.024c0.122 80.52-57.287 147.659-133.427 162.862z" fill="#1296DB" p-id="1477"></path></svg>