<?xml version="1.0" standalone="no"?><!DOCTYPE svg PUBLIC "-//W3C//DTD SVG 1.1//EN" "http://www.w3.org/Graphics/SVG/1.1/DTD/svg11.dtd"><svg t="1736241278682" class="icon" viewBox="0 0 1024 1024" version="1.1" xmlns="http://www.w3.org/2000/svg" p-id="5187" id="mx_n_1736241278683" width="48" height="48" xmlns:xlink="http://www.w3.org/1999/xlink"><path d="M684.8 275.2c147.2 0 256-51.2 275.2-102.4l0 0C960 108.8 832 64 684.8 64 531.2 64 403.2 108.8 403.2 172.8l0 0C422.4 224 531.2 275.2 684.8 275.2z" fill="#F6BB42" p-id="5188"></path><path d="M684.8 691.2c-19.2 0-44.8 0-64-6.4l0 140.8c19.2 0 44.8 0 64 0 153.6 0 275.2-38.4 275.2-89.6L960 620.8C896 665.6 800 691.2 684.8 691.2z" fill="#F6BB42" p-id="5189"></path><path d="M684.8 505.6c-19.2 0-44.8 0-64-6.4l0 140.8c19.2 0 44.8 6.4 64 6.4 147.2 0 256-51.2 275.2-102.4L960 435.2C896 480 800 505.6 684.8 505.6z" fill="#F6BB42" p-id="5190"></path><path d="M684.8 320C563.2 320 467.2 288 403.2 249.6L403.2 320c128 12.8 243.2 57.6 249.6 140.8 6.4 0 19.2 0 25.6 0 147.2 0 256-51.2 275.2-102.4L953.6 249.6C896 288 800 320 684.8 320z" fill="#F6BB42" p-id="5191"></path><path d="M339.2 563.2c147.2 0 256-51.2 275.2-102.4l0 0c0-57.6-121.6-108.8-275.2-108.8C192 358.4 64 403.2 64 460.8l0 0C83.2 518.4 192 563.2 339.2 563.2z" fill="#F6BB42" p-id="5192"></path><path d="M339.2 768c147.2 0 256-51.2 275.2-102.4L614.4 550.4C556.8 595.2 460.8 620.8 339.2 620.8S128 595.2 64 550.4l0 115.2C83.2 716.8 192 768 339.2 768z" fill="#F6BB42" p-id="5193"></path><path d="M339.2 825.6c-115.2 0-217.6-25.6-275.2-70.4l0 115.2C64 921.6 192 960 339.2 960s275.2-38.4 275.2-89.6l0-115.2C556.8 793.6 460.8 825.6 339.2 825.6z" fill="#F6BB42" p-id="5194"></path></svg>