<?xml version="1.0" standalone="no"?><!DOCTYPE svg PUBLIC "-//W3C//DTD SVG 1.1//EN" "http://www.w3.org/Graphics/SVG/1.1/DTD/svg11.dtd"><svg t="1685199447915" class="icon" viewBox="0 0 1024 1024" version="1.1" xmlns="http://www.w3.org/2000/svg" p-id="3754" xmlns:xlink="http://www.w3.org/1999/xlink" width="200" height="200"><path d="M871.822506 529.909254 523.564261 168.551669c-4.809914-5.014591-11.564261-7.880072-18.523286-7.880072 0 0 0 0 0 0-6.959025 0-13.713372 2.865481-18.523286 7.880072L139.385169 530.011593c-8.596442 9.005797-8.289426 23.230861 0.614032 31.827304 9.005797 8.596442 23.230861 8.289426 31.827304-0.614032l333.112133-346.927843 334.340196 346.927843c4.40056 4.605237 10.336198 6.856686 16.169498 6.856686 5.628623 0 11.257246-2.046772 15.657805-6.344993C880.214271 553.140116 880.418949 538.915051 871.822506 529.909254zM762.422546 556.721967c-12.485309 0-22.514491 10.029182-22.514491 22.514491l0 250.729562L272.220668 829.96602 272.220668 579.236458c0-12.485309-10.029182-22.514491-22.514491-22.514491s-22.514491 10.029182-22.514491 22.514491l0 295.758545 557.745353 0L784.937038 579.236458C784.937038 566.751149 774.907855 556.721967 762.422546 556.721967zM494.602439 756.179892c2.456126 1.43274 5.219268 1.944433 7.880072 2.149111 0.511693 0 1.535079 0.204677 2.558465 0.204677 1.023386 0 2.046772-0.102339 2.558465-0.204677 2.660804-0.307016 5.321607-0.71637 7.880072-2.149111 39.605037-23.537877 96.607635-89.955627 99.063762-92.821107 30.189886-35.71617 43.289226-70.408955 38.991005-103.259644-5.219268-40.526084-35.511493-62.119528-36.841895-63.040576l-0.102339-0.102339c-36.944233-25.379972-69.180891-16.681191-89.750949-4.809914-8.801119 5.11693-16.169498 11.154907-21.798121 16.578853-5.628623-5.423946-12.894663-11.564261-21.798121-16.578853-20.467719-11.871277-52.704377-20.570058-89.750949 4.809914l-0.102339 0.102339c-1.330402 0.921047-31.520288 22.514491-36.841895 63.040576-4.298221 32.85069 8.903458 67.543474 39.093344 103.361983C398.097142 666.224265 455.09974 732.642015 494.602439 756.179892zM386.942235 564.4997c3.274835-26.403358 22.923846-41.447132 24.04957-42.26584 19.034979-12.997002 37.455926-14.327404 56.081551-3.888867 15.248451 8.596442 24.970618 21.90046 25.072956 22.105137 2.763142 3.991205 7.163702 6.242654 11.6666 6.447332 5.219268 0.409354 10.540875-1.842095 13.815711-6.447332 0.102339-0.102339 9.722167-13.508695 25.072956-22.105137 18.625625-10.438537 37.046572-9.210474 56.081551 3.888867 1.125725 0.818709 20.877074 15.862483 24.04957 42.26584 2.967819 23.844893-7.880072 50.452928-32.031981 79.005397-0.511693 0.614032-50.759944 59.151709-85.964421 82.894263-35.204477-23.742554-85.452728-82.280232-85.964421-82.894263C394.822307 614.85029 383.974415 588.242255 386.942235 564.4997z" fill="#1296db" p-id="3755"></path></svg>