<?xml version="1.0" standalone="no"?><!DOCTYPE svg PUBLIC "-//W3C//DTD SVG 1.1//EN" "http://www.w3.org/Graphics/SVG/1.1/DTD/svg11.dtd"><svg t="1685200825165" class="icon" viewBox="0 0 1024 1024" version="1.1" xmlns="http://www.w3.org/2000/svg" p-id="2660" xmlns:xlink="http://www.w3.org/1999/xlink" width="200" height="200"><path d="M511.999884 0C229.236312 0 0 229.236312 0 511.999884c0 109.381793 34.559992 210.478498 92.974524 293.678478L51.199988 972.799779l167.098144-41.774536A509.23043 509.23043 0 0 0 511.999884 1023.999767c282.763572 0 511.999884-229.236312 511.999883-511.999883S794.763456 0 511.999884 0z m166.376689 628.363494h-332.799924c-21.224722 0-38.399991-23.063267-38.399992-34.909083s17.175269-34.909083 38.399992-34.909083h332.799924c21.20145 0 38.399991 23.063267 38.399991 34.909083s-17.198542 34.909083-38.399991 34.909083z m0.023273-162.909054h-332.799925c-21.224722 0-38.399991-13.707633-38.399991-34.909083s17.175269-34.909083 38.399991-34.909083h332.799925c21.20145 0 38.399991 13.707633 38.399991 34.909083s-17.198542 34.909083-38.399991 34.909083z" p-id="2661" fill="#1296db"></path></svg>