<?xml version="1.0" standalone="no"?>
<!DOCTYPE svg PUBLIC "-//W3C//DTD SVG 20010904//EN"
 "http://www.w3.org/TR/2001/REC-SVG-20010904/DTD/svg10.dtd">
<svg version="1.0" xmlns="http://www.w3.org/2000/svg"
 width="80.000000pt" height="80.000000pt" viewBox="0 0 80.000000 80.000000"
 preserveAspectRatio="xMidYMid meet">

<g transform="translate(0.000000,80.000000) scale(0.100000,-0.100000)"
fill="#000000" stroke="none">
<path d="M0 400 l0 -400 400 0 400 0 0 400 0 400 -400 0 -400 0 0 -400z m390
64 c0 -3 -5 -15 -11 -26 -8 -14 -8 -23 0 -31 13 -13 -15 -36 -43 -37 -16 0
-17 -3 -8 -12 9 -9 15 -9 24 0 7 7 17 12 22 12 6 0 5 -5 -2 -12 -16 -16 -15
-28 3 -28 8 0 15 -4 15 -10 0 -14 -13 -12 -36 5 -25 19 -34 19 -34 0 0 -17
-17 -20 -22 -4 -2 7 -12 7 -32 -1 -42 -16 -43 -4 -2 15 20 10 36 22 36 27 0 5
-10 2 -22 -6 -12 -9 -29 -16 -38 -16 -9 1 -6 6 9 14 23 13 23 14 5 19 -14 3
-11 5 9 6 16 0 38 9 51 18 19 14 21 21 12 40 -16 33 -28 28 -24 -8 3 -29 1
-32 -32 -34 -35 -4 -35 -3 -35 36 l0 39 78 0 c42 0 77 -3 77 -6z m108 -66 c21
-58 22 -93 1 -55 -13 22 -69 24 -69 2 0 -8 -7 -15 -15 -15 -13 0 -12 7 4 48
10 26 21 55 24 65 12 33 33 16 55 -45z m62 -3 c0 -37 -4 -65 -10 -65 -6 0 -10
28 -10 65 0 37 4 65 10 65 6 0 10 -28 10 -65z"/>
<path d="M258 453 c6 -2 18 -2 25 0 6 3 1 5 -13 5 -14 0 -19 -2 -12 -5z"/>
<path d="M338 438 c9 -9 15 -9 24 0 9 9 7 12 -12 12 -19 0 -21 -3 -12 -12z"/>
<path d="M258 433 c6 -2 18 -2 25 0 6 3 1 5 -13 5 -14 0 -19 -2 -12 -5z"/>
<path d="M258 413 c6 -2 18 -2 25 0 6 3 1 5 -13 5 -14 0 -19 -2 -12 -5z"/>
<path d="M345 400 c-3 -5 1 -10 10 -10 9 0 13 5 10 10 -3 6 -8 10 -10 10 -2 0
-7 -4 -10 -10z"/>
<path d="M452 410 c-7 -19 -6 -26 5 -28 21 -5 25 2 14 29 l-9 24 -10 -25z"/>
</g>
</svg>
