<?xml version="1.0" standalone="no"?>
<!DOCTYPE svg PUBLIC "-//W3C//DTD SVG 20010904//EN"
 "http://www.w3.org/TR/2001/REC-SVG-20010904/DTD/svg10.dtd">
<svg version="1.0" xmlns="http://www.w3.org/2000/svg"
 width="1024.000000pt" height="1024.000000pt" viewBox="0 0 1024.000000 1024.000000"
 preserveAspectRatio="xMidYMid meet">

<g transform="translate(0.000000,1024.000000) scale(0.100000,-0.100000)"
fill="#000000" stroke="none">
<path d="M0 5120 l0 -5120 5120 0 5120 0 0 5120 0 5120 -5120 0 -5120 0 0
-5120z m4008 798 l3 -67 -68 -3 -68 -3 -3 -303 -2 -303 69 7 c37 3 70 2 73 -2
2 -5 2 -37 0 -70 l-4 -62 -56 -6 c-31 -4 -62 -10 -69 -14 -7 -5 -13 -38 -15
-82 l-3 -75 -75 0 -75 0 -3 68 c-2 44 -7 67 -15 67 -21 0 -396 -50 -637 -84
-145 -21 -135 -23 -148 35 -23 99 -17 109 66 109 26 0 57 3 70 6 l22 6 0 354
0 353 -77 3 -78 3 -3 54 c-2 29 -1 60 2 67 5 12 95 14 548 12 l543 -3 3 -67z
m956 -58 c-2 -113 -103 -324 -221 -463 -29 -34 -53 -65 -53 -68 0 -4 74 -61
165 -128 91 -68 165 -128 165 -134 0 -14 -98 -127 -109 -127 -5 0 -79 56 -165
125 -86 68 -164 129 -174 134 -14 8 -29 1 -68 -30 -87 -69 -416 -252 -428
-238 -18 23 -86 130 -86 137 0 4 26 19 58 32 132 54 382 204 366 220 -9 8
-300 219 -354 256 l-30 21 41 51 c22 29 47 52 56 52 8 0 105 -61 214 -135 110
-74 203 -135 207 -135 21 0 161 189 208 282 42 84 68 77 -328 80 l-353 3 -3
54 c-2 29 -1 60 2 67 5 12 79 14 448 12 l443 -3 -1 -65z m1192 -240 c114 -300
333 -874 426 -1120 32 -85 72 -188 88 -229 17 -40 30 -78 30 -83 0 -5 -55 -7
-126 -6 l-125 3 -70 185 c-39 102 -78 205 -87 230 l-18 45 -355 3 -356 2 -10
-32 c-15 -45 -139 -399 -148 -420 -6 -16 -22 -18 -132 -18 -115 0 -125 1 -120
18 6 22 211 562 270 712 25 63 83 216 130 340 47 124 119 315 161 425 42 110
79 206 81 213 4 9 35 12 130 10 l126 -3 105 -275z m1022 -577 l-3 -858 -115 0
-115 0 -3 858 -2 857 120 0 120 0 -2 -857z m-2460 -162 c7 -38 9 -68 4 -73 -5
-5 -58 -14 -118 -19 -60 -5 -179 -16 -264 -24 -85 -8 -181 -15 -212 -15 -32 0
-58 -4 -58 -8 0 -26 188 -238 250 -282 l26 -18 107 63 c59 35 154 96 212 134
57 39 110 71 117 70 15 0 103 -111 103 -130 0 -12 -87 -63 -313 -186 l-94 -50
34 -21 c129 -79 299 -147 493 -197 39 -10 71 -19 73 -20 6 -5 -103 -155 -112
-155 -18 0 -180 52 -241 77 -240 100 -439 236 -592 405 -27 29 -53 54 -58 56
-6 1 -12 -109 -15 -300 l-5 -303 -80 0 -80 0 -5 425 -5 425 -30 -2 c-186 -10
-527 -23 -630 -23 l-130 0 -13 65 c-6 35 -12 69 -12 75 0 6 56 10 157 10 87 0
241 5 343 10 451 25 537 30 730 45 113 9 225 20 250 25 25 4 70 7 100 7 l55
-2 13 -64z m-1050 -235 c17 -30 32 -58 32 -64 0 -15 -193 -106 -405 -189 -89
-35 -155 -58 -268 -93 l-58 -18 -34 69 c-19 38 -35 73 -35 78 0 5 17 12 38 16
35 6 135 35 244 69 73 23 265 102 353 145 44 22 85 40 90 40 6 0 25 -24 43
-53z m135 -281 l38 -55 -48 -31 c-73 -46 -393 -201 -523 -253 -136 -53 -288
-106 -307 -106 -11 0 -73 119 -73 141 0 5 12 11 28 15 52 12 327 106 410 140
100 41 276 129 356 177 32 20 64 33 70 31 6 -3 28 -30 49 -59z"/>
<path d="M3237 5843 c-4 -3 -7 -33 -7 -65 l0 -58 240 0 240 0 0 65 0 65 -233
0 c-129 0 -237 -3 -240 -7z"/>
<path d="M3230 5520 l0 -70 240 0 240 0 0 70 0 70 -240 0 -240 0 0 -70z"/>
<path d="M3230 5239 l0 -82 48 6 c26 4 88 11 137 17 174 20 260 32 278 36 13
4 17 16 17 55 l0 49 -240 0 -240 0 0 -81z"/>
<path d="M5869 5495 c-32 -88 -96 -267 -143 -399 -47 -131 -86 -240 -86 -242
0 -2 126 -4 280 -4 154 0 280 2 280 5 0 3 -54 155 -121 338 -152 420 -148 407
-151 437 -2 16 -23 -33 -59 -135z"/>
</g>
</svg>
